<svg width="253" height="235" viewBox="0 0 253 235" fill="none" xmlns="http://www.w3.org/2000/svg">
<g filter="url(#filter0_d_12_5)">
<path d="M201.388 38C198.842 38.0023 196.401 39.2282 194.601 41.4084C192.801 43.5886 191.79 46.5447 191.79 49.6268C191.79 52.709 192.801 55.665 194.601 57.8452C196.401 60.0254 198.842 61.2514 201.388 61.2537C202.65 61.2548 203.9 60.9549 205.066 60.3711C206.232 59.7873 207.292 58.931 208.184 57.8513C209.077 56.7715 209.785 55.4894 210.268 54.0782C210.751 52.667 211 51.1544 211 49.6268C211 48.0993 210.751 46.5867 210.268 45.1755C209.785 43.7643 209.077 42.4822 208.184 41.4024C207.292 40.3226 206.232 39.4664 205.066 38.8826C203.9 38.2988 202.65 37.9989 201.388 38ZM88.6933 41.888L46.2532 41.9624C46.0701 41.9624 45.894 41.9345 45.718 41.9624C43.6337 42.2973 42.007 44.5017 42 47.1526L42.1267 182.712C42.1267 184.759 42.5493 189 46.9292 189L86.2217 188.805C97.4531 188.777 104.981 188.516 109.459 187.763H109.572C114.249 186.846 118.855 185.386 123.338 183.401C131.929 179.866 139.534 174.62 146.083 167.616C152.274 161.165 157.35 153.04 160.969 143.786C163.206 137.976 164.741 131.74 165.518 125.304C166.126 125.413 166.736 125.5 167.349 125.564C175.275 125.564 182.876 121.752 188.48 114.966C194.085 108.181 197.234 98.9775 197.234 89.3813C197.234 79.785 194.085 70.5818 188.48 63.7963C182.876 57.0107 175.275 53.1986 167.349 53.1986C159.731 53.2795 152.427 56.8795 146.928 63.2628C142.151 58.0427 136.811 53.7946 131.084 50.6593C120.268 44.6133 106.185 41.8415 88.6933 41.888ZM86.8484 69.8296C95.404 69.8017 101.488 70.1459 104.938 70.7691C108.839 71.541 112.659 72.9017 116.325 74.8245C120.339 76.8522 123.845 79.3171 126.859 82.3959C135.147 90.9067 139.055 100.99 139.069 114.319C139.09 127.973 135.309 138.605 127.239 147.525C124.705 150.273 121.921 152.591 118.951 154.426C116.071 156.194 112.318 157.728 107.579 159.04C103.101 160.231 96.3124 160.9 87.468 160.919L68.6457 160.956L68.5612 69.8668L86.8484 69.8296Z" fill="#818181"/>
</g>
<defs>
<filter id="filter0_d_12_5" x="0.599998" y="0.599998" width="251.8" height="233.8" filterUnits="userSpaceOnUse" color-interpolation-filters="sRGB">
<feFlood flood-opacity="0" result="BackgroundImageFix"/>
<feColorMatrix in="SourceAlpha" type="matrix" values="0 0 0 0 0 0 0 0 0 0 0 0 0 0 0 0 0 0 127 0" result="hardAlpha"/>
<feOffset dy="4"/>
<feGaussianBlur stdDeviation="20.7"/>
<feComposite in2="hardAlpha" operator="out"/>
<feColorMatrix type="matrix" values="0 0 0 0 0 0 0 0 0 0 0 0 0 0 0 0 0 0 0.25 0"/>
<feBlend mode="normal" in2="BackgroundImageFix" result="effect1_dropShadow_12_5"/>
<feBlend mode="normal" in="SourceGraphic" in2="effect1_dropShadow_12_5" result="shape"/>
</filter>
</defs>
</svg>
