<svg width="304" height="107" viewBox="0 0 304 107" fill="none" xmlns="http://www.w3.org/2000/svg">
<g filter="url(#filter0_d_8_4)">
<path d="M91.6405 79.2L69.7304 59.4V74.25H4V84.15H69.7304V99M25.9101 39.6V64.35H36.8652V9.9H47.8202V64.35H58.7753V9.9H69.7304V0L25.9101 0C20.0992 0 14.5263 2.08607 10.4173 5.79929C6.30838 9.51251 4 14.5487 4 19.8C4 25.0513 6.30838 30.0875 10.4173 33.8007C14.5263 37.5139 20.0992 39.6 25.9101 39.6Z" fill="url(#paint0_linear_8_4)" shape-rendering="crispEdges"/>
</g>
<g filter="url(#filter1_d_8_4)">
<path d="M91.1119 56.798H80.3591V27.7071H91.0977C94.0617 27.7071 96.6138 28.2895 98.7539 29.4542C100.904 30.6095 102.561 32.2762 103.726 34.4542C104.89 36.6228 105.473 39.2175 105.473 42.2383C105.473 45.2686 104.89 47.8728 103.726 50.0508C102.57 52.2288 100.918 53.9002 98.7681 55.065C96.6185 56.2203 94.0664 56.798 91.1119 56.798ZM87.3903 50.8037H90.842C92.4708 50.8037 93.8486 50.529 94.9755 49.9798C96.1119 49.4211 96.9689 48.5167 97.5466 47.2667C98.1337 46.0073 98.4272 44.3311 98.4272 42.2383C98.4272 40.1455 98.1337 38.4788 97.5466 37.2383C96.9594 35.9883 96.093 35.0887 94.9471 34.5395C93.8108 33.9807 92.4092 33.7014 90.7426 33.7014H87.3903V50.8037ZM111.648 57.2099C110.625 57.2099 109.749 56.8501 109.02 56.1304C108.301 55.4107 107.945 54.5395 107.955 53.5167C107.945 52.5129 108.301 51.6559 109.02 50.9457C109.749 50.226 110.625 49.8662 111.648 49.8662C112.614 49.8662 113.466 50.226 114.205 50.9457C114.953 51.6559 115.332 52.5129 115.341 53.5167C115.332 54.1985 115.152 54.8188 114.802 55.3775C114.461 55.9362 114.011 56.3813 113.452 56.7127C112.903 57.0442 112.302 57.2099 111.648 57.2099ZM139.02 37.2099C138.859 36.6133 138.623 36.0877 138.31 35.6332C137.998 35.1692 137.614 34.7762 137.159 34.4542C136.705 34.1323 136.184 33.8908 135.597 33.7298C135.01 33.5593 134.366 33.4741 133.665 33.4741C132.254 33.4741 131.033 33.815 130 34.4968C128.978 35.1787 128.187 36.173 127.628 37.4798C127.07 38.7771 126.79 40.3538 126.79 42.2099C126.79 44.0754 127.06 45.6663 127.6 46.9826C128.14 48.2989 128.921 49.3027 129.944 49.994C130.966 50.6853 132.207 51.0309 133.665 51.0309C134.953 51.0309 136.042 50.8226 136.932 50.4059C137.832 49.9798 138.514 49.3785 138.978 48.602C139.442 47.8254 139.674 46.9116 139.674 45.8605L140.981 46.0167H133.907V40.8889H146.449V44.7383C146.449 47.3425 145.895 49.5726 144.787 51.4287C143.689 53.2847 142.174 54.7099 140.242 55.7042C138.32 56.6985 136.108 57.1957 133.608 57.1957C130.834 57.1957 128.395 56.5944 126.293 55.3917C124.191 54.1891 122.552 52.4751 121.378 50.2497C120.204 48.0148 119.617 45.3633 119.617 42.2951C119.617 39.9088 119.972 37.7923 120.682 35.9457C121.392 34.0896 122.382 32.5177 123.651 31.2298C124.929 29.9419 126.407 28.9665 128.083 28.3037C129.768 27.6408 131.582 27.3093 133.523 27.3093C135.209 27.3093 136.776 27.5508 138.225 28.0338C139.683 28.5167 140.971 29.1985 142.088 30.0792C143.215 30.9599 144.129 32.0063 144.83 33.2184C145.531 34.4305 145.966 35.761 146.137 37.2099H139.02ZM150.593 56.798V27.7071H162.61C164.789 27.7071 166.668 28.1001 168.25 28.886C169.841 29.6626 171.067 30.78 171.929 32.2383C172.79 33.6872 173.221 35.4059 173.221 37.3946C173.221 39.4116 172.781 41.1256 171.9 42.5366C171.02 43.9381 169.77 45.0082 168.15 45.7468C166.531 46.476 164.613 46.8406 162.397 46.8406H154.798V41.3008H161.091C162.151 41.3008 163.037 41.1635 163.747 40.8889C164.467 40.6048 165.011 40.1787 165.38 39.6105C165.75 39.0328 165.934 38.2942 165.934 37.3946C165.934 36.4949 165.75 35.7516 165.38 35.1645C165.011 34.5679 164.467 34.1228 163.747 33.8292C163.027 33.5262 162.142 33.3747 161.091 33.3747H157.625V56.798H150.593ZM166.971 43.5025L174.216 56.798H166.545L159.443 43.5025H166.971ZM184.109 27.7071V56.798H177.078V27.7071H184.109ZM213.282 27.7071V56.798H207.316L195.739 40.0082H195.554V56.798H188.523V27.7071H194.574L206.023 44.4684H206.265V27.7071H213.282ZM228.456 56.798H217.703V27.7071H228.441C231.405 27.7071 233.958 28.2895 236.098 29.4542C238.247 30.6095 239.905 32.2762 241.069 34.4542C242.234 36.6228 242.816 39.2175 242.816 42.2383C242.816 45.2686 242.234 47.8728 241.069 50.0508C239.914 52.2288 238.262 53.9002 236.112 55.065C233.962 56.2203 231.41 56.798 228.456 56.798ZM224.734 50.8037H228.186C229.815 50.8037 231.192 50.529 232.319 49.9798C233.456 49.4211 234.313 48.5167 234.89 47.2667C235.477 46.0073 235.771 44.3311 235.771 42.2383C235.771 40.1455 235.477 38.4788 234.89 37.2383C234.303 35.9883 233.437 35.0887 232.291 34.5395C231.155 33.9807 229.753 33.7014 228.086 33.7014H224.734V50.8037ZM246.922 56.798V27.7071H267.206V33.4173H253.953V39.3832H266.169V45.1076H253.953V51.0877H267.206V56.798H246.922ZM271.609 56.798V27.7071H283.626C285.804 27.7071 287.684 28.1001 289.265 28.886C290.856 29.6626 292.083 30.78 292.944 32.2383C293.806 33.6872 294.237 35.4059 294.237 37.3946C294.237 39.4116 293.797 41.1256 292.916 42.5366C292.035 43.9381 290.785 45.0082 289.166 45.7468C287.547 46.476 285.629 46.8406 283.413 46.8406H275.814V41.3008H282.106C283.167 41.3008 284.052 41.1635 284.762 40.8889C285.482 40.6048 286.027 40.1787 286.396 39.6105C286.765 39.0328 286.95 38.2942 286.95 37.3946C286.95 36.4949 286.765 35.7516 286.396 35.1645C286.027 34.5679 285.482 34.1228 284.762 33.8292C284.043 33.5262 283.157 33.3747 282.106 33.3747H278.64V56.798H271.609ZM287.987 43.5025L295.231 56.798H287.561L280.458 43.5025H287.987Z" fill="url(#paint1_linear_8_4)" shape-rendering="crispEdges"/>
</g>
<defs>
<filter id="filter0_d_8_4" x="0" y="0" width="95.6405" height="107" filterUnits="userSpaceOnUse" color-interpolation-filters="sRGB">
<feFlood flood-opacity="0" result="BackgroundImageFix"/>
<feColorMatrix in="SourceAlpha" type="matrix" values="0 0 0 0 0 0 0 0 0 0 0 0 0 0 0 0 0 0 127 0" result="hardAlpha"/>
<feOffset dy="4"/>
<feGaussianBlur stdDeviation="2"/>
<feComposite in2="hardAlpha" operator="out"/>
<feColorMatrix type="matrix" values="0 0 0 0 0 0 0 0 0 0 0 0 0 0 0 0 0 0 0.25 0"/>
<feBlend mode="normal" in2="BackgroundImageFix" result="effect1_dropShadow_8_4"/>
<feBlend mode="normal" in="SourceGraphic" in2="effect1_dropShadow_8_4" result="shape"/>
</filter>
<filter id="filter1_d_8_4" x="76.359" y="27.3093" width="222.872" height="37.9006" filterUnits="userSpaceOnUse" color-interpolation-filters="sRGB">
<feFlood flood-opacity="0" result="BackgroundImageFix"/>
<feColorMatrix in="SourceAlpha" type="matrix" values="0 0 0 0 0 0 0 0 0 0 0 0 0 0 0 0 0 0 127 0" result="hardAlpha"/>
<feOffset dy="4"/>
<feGaussianBlur stdDeviation="2"/>
<feComposite in2="hardAlpha" operator="out"/>
<feColorMatrix type="matrix" values="0 0 0 0 0 0 0 0 0 0 0 0 0 0 0 0 0 0 0.25 0"/>
<feBlend mode="normal" in2="BackgroundImageFix" result="effect1_dropShadow_8_4"/>
<feBlend mode="normal" in="SourceGraphic" in2="effect1_dropShadow_8_4" result="shape"/>
</filter>
<linearGradient id="paint0_linear_8_4" x1="47.8202" y1="0" x2="47.8202" y2="99" gradientUnits="userSpaceOnUse">
<stop offset="0.770833" stop-color="#272727"/>
<stop offset="0.96875" stop-color="#0F0F0F" stop-opacity="0"/>
</linearGradient>
<linearGradient id="paint1_linear_8_4" x1="191.079" y1="17.798" x2="191.079" y2="81.2025" gradientUnits="userSpaceOnUse">
<stop offset="0.385417"/>
<stop offset="0.994792" stop-opacity="0"/>
</linearGradient>
</defs>
</svg>
