<svg width="194" height="193" viewBox="0 0 194 193" fill="none" xmlns="http://www.w3.org/2000/svg">
<path d="M97 12.0625C113.787 12.0625 130.196 17.0147 144.154 26.2928C158.112 35.5709 168.99 48.7582 175.414 64.1872C181.838 79.6161 183.519 96.5937 180.244 112.973C176.969 129.352 168.886 144.398 157.016 156.206C145.146 168.015 130.022 176.057 113.558 179.315C97.0942 182.573 80.0286 180.901 64.5197 174.51C49.0109 168.119 35.7552 157.297 26.429 143.411C17.1028 129.525 12.125 113.2 12.125 96.5C12.125 74.1058 21.0672 52.6288 36.9843 36.7937C52.9015 20.9586 74.4898 12.0625 97 12.0625ZM134.109 43.3044C129.871 43.6177 125.747 44.8099 122.001 46.8043C118.254 48.7986 114.969 51.551 112.356 54.8844C106.398 62.0818 101.883 70.3491 99.0552 79.2386C94.1211 73.7712 87.9722 69.5251 81.0981 66.8383C77.7338 65.8112 74.1705 65.6038 70.7088 66.2336C67.247 66.8634 63.9882 68.3119 61.207 70.4571C58.3239 72.7072 56.2072 75.7859 55.1445 79.2748C54.3972 82.5042 54.4697 85.868 55.3556 89.0625C56.2415 92.2571 57.9128 95.1821 60.2188 97.5736L65.4326 103.134C66.552 104.108 67.3732 105.376 67.8021 106.792C68.231 108.209 68.2502 109.717 67.8576 111.144C66.9609 113.489 65.1749 115.391 62.8837 116.44C60.5925 117.489 57.979 117.601 55.6052 116.753C53.1439 116.005 49.6094 114.184 50.4036 111.614C50.8378 110.668 51.334 109.751 51.8889 108.87C52.1496 108.317 52.3704 107.747 52.5498 107.163C53.1307 105.506 53.0517 103.691 52.3289 102.09C51.6062 100.49 50.2946 99.2251 48.6637 98.5567C47.8831 98.21 47.035 98.0398 46.1803 98.0583C45.3257 98.0768 44.4858 98.2835 43.7211 98.6636C42.9564 99.0437 42.2859 99.5877 41.7579 100.256C41.2298 100.925 40.8573 101.702 40.6673 102.531C39.188 107.308 41.4857 115.987 53.8047 119.763C68.2334 124.171 80.4372 116.355 82.1711 106.162C83.2624 99.775 80.3524 95.0344 75.0538 88.9308L70.7312 84.1721C69.3239 82.8361 68.463 81.0294 68.3141 79.0998C68.1652 77.1702 68.739 75.254 69.9249 73.72C71.2015 72.1509 72.9598 71.0413 74.9307 70.5609C76.9015 70.0805 78.9763 70.2559 80.8374 71.0602C88.6277 73.1651 92.1015 78.545 97.8973 82.8814C95.5026 90.6919 93.9384 98.5265 92.5259 105.553L91.665 110.794C87.5243 132.41 84.39 144.28 76.145 151.089C73.9994 152.872 71.3436 153.938 68.5547 154.135C68.2713 154.179 67.9818 154.168 67.7027 154.101C67.4237 154.034 67.1606 153.913 66.9286 153.745C66.6966 153.577 66.5002 153.365 66.3507 153.122C66.2011 152.878 66.1013 152.607 66.057 152.325C66.0146 151.016 67.1179 150.419 67.8758 149.834C68.7753 149.435 69.52 148.755 69.9978 147.898C70.4756 147.041 70.6606 146.053 70.5251 145.082C70.4839 144.122 70.2492 143.181 69.835 142.313C69.4207 141.445 68.8354 140.67 68.1138 140.031C67.3921 139.393 66.5489 138.906 65.6342 138.599C64.7195 138.292 63.752 138.17 62.7893 138.242C60.5027 138.407 58.3662 139.436 56.8183 141.118C55.2704 142.801 54.4285 145.009 54.4655 147.289C54.6656 153.26 60.2613 157.735 68.6942 157.452C73.5233 157.031 78.2066 155.59 82.4313 153.225C86.6559 150.859 90.3247 147.625 93.1927 143.737C102.297 132.071 108.204 118.256 110.338 103.641L113.047 88.7438C114.551 88.9247 116.164 89.0454 117.897 89.0876C132.284 89.3892 139.474 81.9767 139.583 76.5848C139.66 75.8208 139.585 75.0493 139.362 74.3141C139.14 73.579 138.773 72.8948 138.285 72.3005C137.796 71.7062 137.194 71.2136 136.514 70.8507C135.834 70.4878 135.089 70.2618 134.321 70.1857C132.993 70.2173 131.713 70.6862 130.682 71.5189C129.651 72.3517 128.926 73.5012 128.622 74.7875C127.967 77.8031 133.199 80.5112 129.107 83.1468C124.366 85.6375 118.895 86.387 113.654 85.2638L114.987 77.9298C117.709 64.0217 121.05 46.9111 133.781 46.4949C134.709 46.4467 138.104 46.5371 138.183 48.7687C138.183 49.5166 138.019 49.7035 137.14 51.4164C136.321 52.5015 135.894 53.8295 135.927 55.1859C135.947 56.0207 136.144 56.842 136.504 57.5961C136.865 58.3501 137.381 59.02 138.02 59.5619C138.658 60.1038 139.405 60.5056 140.21 60.741C141.015 60.9763 141.861 61.0399 142.693 60.9277C143.651 60.8464 144.583 60.5782 145.437 60.1383C146.291 59.6984 147.049 59.0955 147.668 58.364C148.287 57.6325 148.756 56.7867 149.046 55.8751C149.337 54.9634 149.444 54.0038 149.362 53.0509C149.15 46.9111 142.639 43.0269 134.024 43.3104L134.109 43.3044Z" fill="#1A171B"/>
</svg>
